<?xml version="1.0" encoding="utf-8"?>
<!-- Generator: Adobe Illustrator 22.0.1, SVG Export Plug-In . SVG Version: 6.00 Build 0)  -->
<svg version="1.1" id="Layer_1" xmlns="http://www.w3.org/2000/svg" xmlns:xlink="http://www.w3.org/1999/xlink" x="0px" y="0px"
	 viewBox="0 0 1436 493.1" style="enable-background:new 0 0 1436 493.1;" xml:space="preserve">
<style type="text/css">
	.st0{fill:#FFFFFF;}
</style>
<g>
	<path class="st0" d="M184.7,377.3c-81,0-145.8-65.3-145.7-146.6c0.1-80.5,66-146,146.9-145.8c79.7,0.1,145.5,66.4,145.5,146.5
		C331.4,312.2,265.8,377.4,184.7,377.3z M155.1,181.5c-25.7,25.5-50.2,49.8-75.3,74.6c2.4,2.6,5.1,5.4,9.2,9.7
		c11.2-11.8,21.4-22.6,32.7-34.5c10.6,11.2,20.8,22,32.1,33.9c10.6-11,20.8-21.5,31.8-33c10.5,11.2,20.6,21.9,30,31.8
		c4.7-3.6,5.1-5.9,10.6-10.1c-12.4-11.1-20.5-21.2-31.3-30.9c8.2-8.3,15.3-15.5,22.9-23.1c21.3,21.5,42.4,42.9,63.6,64.4
		c3.9-3.3,6.9-5.9,9.2-7.9c-25.3-25.5-49.6-50-75.1-75.6c-9.7,10.5-19.6,21.2-30.7,33.2C173.9,202.1,164.1,191.4,155.1,181.5z"/>
	<path class="st0" d="M174.6,222.6c-7.5,7.1-15,14.1-22.8,21.5c-6.7-6.9-13.7-14.1-20.4-21c7.2-7,14.6-14.1,22.1-21.4
		C159.8,207.9,167,215.1,174.6,222.6z"/>
</g>
<path class="st0" d="M851.3,181.4c3.3,0,5.9,0,9.3,0c0,3.9,0,7.9,0,11.8c0,14.5,0.1,29,0,43.6c-0.1,15.6-11.9,27.5-27.3,27.9
	c-18.5,0.4-31.4-9.8-31.8-26.4c-0.5-18.7-0.1-37.5-0.1-56.7c3.1,0,6,0,9.6,0c0,6.6,0,13.2,0,19.8c0,12.1-0.1,24.2,0,36.3
	c0.1,10.7,8,18.3,18.9,18.6c12.4,0.3,20.8-6.2,21.1-17.3c0.5-16.7,0.3-33.5,0.3-50.2C851.3,186.4,851.3,184,851.3,181.4z"/>
<path class="st0" d="M713.8,182.1c3.5,0,6.1,0,9.3,0c0,14.3,0,28.4,0,42.4c0,6,0.6,12.2-0.4,18.1c-3,17.9-22.7,27.7-40.8,20.8
	c-10.9-4.1-17.4-12.1-17.8-23.6c-0.6-19.1-0.2-38.2-0.2-57.7c3.1,0,5.9,0,9.5,0c0,2,0,4.2,0,6.3c0,16.3,0,32.7,0,49
	c0,11.3,7.6,19.1,18.7,19.5c12.8,0.4,21.2-6.3,21.5-18.2c0.4-16.5,0.2-33.1,0.2-49.6C713.8,186.9,713.8,184.7,713.8,182.1z"/>
<path class="st0" d="M1158.5,182c3.2,0,5.6,0,8.7,0c0,9.5-0.1,18.7,0,27.9c0.1,10.3-0.1,20.6,0.9,30.8c1.1,11,9.9,17,22.2,16.2
	c10.1-0.7,17.8-8.7,17.9-19.2c0.2-17.4,0.1-34.7,0.1-52.1c0-1,0.1-2,0.2-3.4c2.8,0,5.5,0,8.7,0c0.1,1.6,0.3,3.4,0.3,5.1
	c0,15.9,0.1,31.9,0,47.8c-0.1,22.9-20.3,36.3-41.7,27.9c-11.1-4.4-17.1-12.4-17.2-24.4C1158.4,220,1158.5,201.2,1158.5,182z"/>
<path class="st0" d="M1364.7,184.1c-9.7-1.5-19.6-1.3-29.9-2c0,28.4,0,55.5,0,83.4c10.3-0.6,20.2-0.5,29.9-1.9
	c18.5-2.9,31.4-19.9,31.4-40.1C1396,203.7,1383,186.9,1364.7,184.1z M1382.6,240.2c-8.3,14.7-22.5,17.5-38.8,16.2
	c0-21.8,0-43,0-64.8c14.7-1.6,28.2,0.6,37.2,13.3C1388.9,215.9,1389.2,228.5,1382.6,240.2z"/>
<polygon class="st0" points="733.6,181.6 733.6,189.7 754.5,189.7 754.5,264 763.7,264 763.7,189.7 784.5,189.7 784.5,181.6 "/>
<polygon class="st0" points="366.8,181.7 366.8,189.7 387.6,189.7 387.6,264.1 396.9,264.1 396.9,189.7 417.7,189.7 417.7,181.7 "/>
<polygon class="st0" points="481.4,181.7 481.4,214.7 439.3,214.7 439.3,181.7 429.5,181.7 429.5,264.1 439.3,264.1 439.3,224.3 
	481.4,224.3 481.4,264.1 491.2,264.1 491.2,181.7 "/>
<polygon class="st0" points="555.5,190.2 555.5,181.7 521.6,181.7 516.6,181.7 513.6,181.7 513.6,264.1 516.6,264.1 521.6,264.1 
	555.5,264.1 555.5,255.6 521.6,255.6 521.6,222.9 555.5,222.9 555.5,214.4 521.6,214.4 521.6,190.2 "/>
<polygon class="st0" points="646.5,190.1 646.5,181.6 616,181.6 611,181.6 608,181.6 608,264 616,264 616,222.8 644.9,222.8 
	644.9,214.3 616,214.3 616,190.1 "/>
<polygon class="st0" points="983.5,190.6 983.5,182.1 949.6,182.1 944.6,182.1 941.6,182.1 941.6,264.5 944.6,264.5 949.6,264.5 
	983.5,264.5 983.5,256 949.6,256 949.6,223.3 983.5,223.3 983.5,214.8 949.6,214.8 949.6,190.6 "/>
<polygon class="st0" points="1140.2,190.6 1140.2,182.1 1109.7,182.1 1104.7,182.1 1101.7,182.1 1101.7,264.5 1109.7,264.5 
	1109.7,223.3 1138.6,223.3 1138.6,214.8 1109.7,214.8 1109.7,190.6 "/>
<polygon class="st0" points="1310.5,182.1 1300.4,182.1 1300.4,244.7 1240.2,182.6 1240.2,182.6 1235.9,178.1 1235.9,264 
	1244.3,264 1244.3,199.8 1300.4,258.4 1300.4,258.6 1301.7,259.7 1302.4,260.5 1302.4,260.4 1310.5,267.7 "/>
<path class="st0" d="M922.1,259.9l-22.3-33.2c13.1-1.9,20.3-8.1,20.3-23c0-24.2-26.3-22.6-32.8-21.8v-0.3h-10V264h10v-36.6
	c1.1,0,2.1,0,3.2,0l24.9,37L922.1,259.9z M887.3,190.4c23.2-0.8,23.5,5.6,24,14.1c1.2,16.9-17.1,16.3-24,15.4V190.4z"/>
<path class="st0" d="M1045.8,192.9c1,3.4-8.2-12.8-19.4-12.8c-12.8,0-26,7.2-24.2,23.2c1.8,16,23,21.4,23,21.4s15.4,6,14.6,15
	c-0.6,6.2,1.5,15.2-18.4,17.4c-10.6,1.2-14.2-9-15.6-14.4l-9.4,1.2c0,0,3.2,23.3,29.3,20.5c20-2.1,23-17.5,22.4-22.5
	c-0.6-5,2-17.9-20.2-24.6c-24.5-7.5-16.6-22-16.6-22s12.6-17.2,27.4,2.2C1039.3,198.4,1045.8,192.9,1045.8,192.9z"/>
</svg>
