<?xml version="1.0" encoding="utf-8"?>
<!-- Generator: Adobe Illustrator 22.0.1, SVG Export Plug-In . SVG Version: 6.00 Build 0)  -->
<svg version="1.1" id="Layer_1" xmlns="http://www.w3.org/2000/svg" xmlns:xlink="http://www.w3.org/1999/xlink" x="0px" y="0px"
	 viewBox="0 0 122.9 122.9" style="enable-background:new 0 0 122.9 122.9;" xml:space="preserve">
<style type="text/css">
	.st0{fill:#272660;}
	.st1{fill:#12153A;}
	.st2{fill:#FFFFFF;}
</style>
<g>
	<path class="st0" d="M122.9,61.5c0,19.5-9,36.8-23.1,48.1l2.1-7.8L65.4,72.5l-13.6,3.9L21,45.7L1.1,71.3L0.9,72
		C0.3,68.5,0,65,0,61.5C0,27.5,27.5,0,61.5,0C95.4,0,122.9,27.5,122.9,61.5z"/>
	<path class="st1" d="M101.9,101.7l-2.1,7.8c-10.5,8.4-23.9,13.4-38.4,13.4c-30.4,0-55.6-22.1-60.6-51L1,71.2l19.9-25.6l30.8,30.7
		l13.7-3.8L101.9,101.7z"/>
	<g>
		<g>
			<g>
				<polygon class="st2" points="49.4,74 73.8,49.6 73,48.8 71.8,47.5 45.4,21.2 42.6,24.1 49.5,31 47.6,32.9 40.6,26 37.6,29 
					51.4,42.8 49.4,44.7 35.7,31 31.2,35.5 38.1,42.4 36.1,44.3 29.2,37.4 25.3,41.3 37.7,53.7 35.8,55.6 23.4,43.2 21,45.7 
					48.5,73.2 48.6,73.2 				"/>
				<path class="st2" d="M76.2,52l-0.4-0.4L51.4,76l0.4,0.4c0,0,3.9,6.3,13.6-3.9c0,0,7.1,1.8,15.8,15.4s20.7,13.8,20.7,13.8
					s-0.5-11.6-14.1-20.3c-13.6-8.7-15.4-15.8-15.4-15.8C82.5,55.9,76.2,52,76.2,52z"/>
			</g>
		</g>
	</g>
</g>
</svg>
