<?xml version="1.0" encoding="utf-8"?>
<!-- Generator: Adobe Illustrator 22.0.1, SVG Export Plug-In . SVG Version: 6.00 Build 0)  -->
<svg version="1.1" id="Layer_1" xmlns="http://www.w3.org/2000/svg" xmlns:xlink="http://www.w3.org/1999/xlink" x="0px" y="0px"
	 viewBox="0 0 127.1 127.2" style="enable-background:new 0 0 127.1 127.2;" xml:space="preserve">
<style type="text/css">
	.st0{fill:#9F2065;}
	.st1{fill:#841C55;}
	.st2{fill:#FFFFFF;}
</style>
<g>
	<path class="st0" d="M127.1,63.6c0,28.2-18.3,52.1-43.7,60.4c-6.2,2.1-12.9,3.2-19.8,3.2c-29.5,0-54.4-20.2-61.5-47.5
		C0.8,74.6,0,69.2,0,63.6C0,28.5,28.5,0,63.6,0C98.7,0,127.1,28.5,127.1,63.6z"/>
	<path class="st1" d="M91.6,53.3L83.3,124c-6.2,2.1-12.9,3.2-19.8,3.2C34,127.2,9.1,107,2,79.7l37-49l6.6-8.4c0,0,9.5-7.2,22.1-5.4
		c12.5,1.8,15.5,8.4,20.3,13.7S91.6,53.3,91.6,53.3z"/>
	<g>
		<g>
			<g>
				<path class="st2" d="M70.9,17.7c0.9,0.3,1.9,0.6,2.8,0.9c0.1,0,0.1,0,0.3,0c0.3,0,0.6-0.1,0.8-0.5c0.1-0.4,0-0.9-0.4-1
					c-1-0.4-1.9-0.8-2.9-1c-0.4-0.1-0.9,0.1-0.9,0.5C70.2,17.2,70.5,17.6,70.9,17.7z"/>
				<path class="st2" d="M59,17.1C59,17.1,59.1,17.1,59,17.1c1.2-0.1,2-0.3,3.1-0.4c0.4,0,0.8-0.4,0.8-0.8s-0.4-0.8-0.8-0.8
					c-1,0-2,0.1-3.1,0.4c-0.4,0.1-0.8,0.5-0.6,0.9C58.2,16.8,58.6,17.1,59,17.1z"/>
				<path class="st2" d="M53.1,18.7c0.1,0,0.3,0,0.3,0c0.9-0.4,1.9-0.6,2.8-0.9c0.4-0.1,0.6-0.5,0.5-0.9s-0.5-0.6-0.9-0.5
					c-1,0.3-2,0.6-2.9,1c-0.4,0.1-0.6,0.6-0.4,1C52.4,18.6,52.7,18.7,53.1,18.7z"/>
				<path class="st2" d="M47.7,21.7c0.1,0,0.3,0,0.4-0.1c0.8-0.5,1.7-1,2.6-1.5c0.4-0.3,0.5-0.6,0.3-1c-0.3-0.4-0.6-0.5-1-0.3
					c-0.9,0.5-1.8,1-2.7,1.7c-0.4,0.3-0.4,0.8-0.3,1C47.2,21.6,47.4,21.7,47.7,21.7z"/>
				<path class="st2" d="M65,16.8c1,0,2,0.1,2.9,0.3H68c0.4,0,0.6-0.3,0.8-0.6c0.1-0.4-0.3-0.8-0.6-0.9c-1-0.1-2-0.3-3.1-0.4
					c-0.4,0-0.8,0.3-0.8,0.8C64.2,16.4,64.6,16.7,65,16.8z"/>
				<path class="st2" d="M43,25.7c0.3,0,0.4-0.1,0.5-0.3c0.6-0.8,1.4-1.4,2.2-2c0.4-0.3,0.4-0.8,0.1-1.2s-0.8-0.4-1.2-0.1
					c-0.8,0.6-1.5,1.4-2.3,2.2c-0.3,0.3-0.3,0.8,0,1.2C42.6,25.5,42.8,25.7,43,25.7z"/>
				<path class="st2" d="M76.5,19.9c0.9,0.5,1.8,1,2.6,1.5c0.1,0.1,0.3,0.1,0.4,0.1c0.3,0,0.5-0.1,0.6-0.4c0.3-0.4,0.1-0.9-0.3-1
					c-0.9-0.6-1.8-1.2-2.7-1.7c-0.4-0.3-0.9,0-1,0.4C75.9,19.3,76.1,19.8,76.5,19.9z"/>
				<path class="st2" d="M88.5,32.7c0.4,0.9,0.8,1.8,1.2,2.8c0.1,0.4,0.4,0.5,0.8,0.5c0.1,0,0.1,0,0.3,0c0.4-0.1,0.6-0.6,0.5-1
					c-0.4-1-0.8-1.9-1.2-2.9c-0.1-0.4-0.6-0.5-1-0.4C88.5,31.8,88.4,32.3,88.5,32.7z"/>
				<path class="st2" d="M90.4,38.3c0.3,1,0.4,1.9,0.5,2.9c0,0.4,0.4,0.6,0.8,0.6c0,0,0,0,0.1,0c0.4,0,0.8-0.4,0.6-0.9
					c-0.1-1-0.3-2-0.5-3.1c-0.1-0.4-0.5-0.6-0.9-0.6C90.7,37.4,90.3,37.9,90.4,38.3z"/>
				<path class="st2" d="M81.4,65.3c-0.8,0.6-1.5,1.3-2.4,1.8c-0.4,0.3-0.4,0.8-0.3,1c0.1,0.3,0.4,0.4,0.6,0.4c0.1,0,0.3,0,0.4-0.1
					c0.9-0.6,1.7-1.3,2.6-1.9c0.4-0.3,0.4-0.8,0.1-1.2C82.3,65.1,81.7,65,81.4,65.3z"/>
				<path class="st2" d="M87.1,30c0.1,0.3,0.4,0.4,0.6,0.4c0.1,0,0.3,0,0.4-0.1c0.4-0.3,0.5-0.6,0.3-1c-0.5-0.9-1.2-1.8-1.8-2.6
					c-0.1-0.4-0.6-0.4-1-0.1s-0.4,0.8-0.1,1C86.1,28.3,86.6,29.2,87.1,30z"/>
				<path class="st2" d="M83.5,25.3c0.1,0.1,0.4,0.3,0.5,0.3c0.3,0,0.4-0.1,0.5-0.3c0.3-0.3,0.4-0.8,0-1.2c-0.8-0.8-1.5-1.5-2.3-2.2
					c-0.4-0.3-0.8-0.3-1.2,0.1c-0.3,0.4-0.3,0.8,0.1,1.2C82.1,23.9,82.9,24.6,83.5,25.3z"/>
				<path class="st2" d="M89.7,55.5c-0.4-0.1-0.9,0-1,0.4c-0.4,0.9-0.9,1.8-1.4,2.7c-0.3,0.4-0.1,0.9,0.3,1c0.1,0.1,0.3,0.1,0.4,0.1
					c0.3,0,0.5-0.1,0.6-0.4c0.5-0.9,1-1.8,1.5-2.8C90.2,56.1,90.1,55.6,89.7,55.5z"/>
				<path class="st2" d="M44.7,66.5c0.8,0.6,1.7,1.3,2.6,1.9c0.1,0.1,0.3,0.1,0.4,0.1c0.3,0,0.5-0.1,0.6-0.4c0.3-0.4,0.1-0.9-0.3-1
					c-0.8-0.5-1.7-1.2-2.4-1.8c-0.4-0.3-0.8-0.3-1.2,0.1C44.4,65.7,44.4,66.2,44.7,66.5z"/>
				<path class="st2" d="M39.8,59.6c0.4-0.3,0.5-0.6,0.3-1c-0.5-0.9-1-1.8-1.4-2.7c-0.1-0.4-0.6-0.5-1-0.4s-0.5,0.6-0.4,1
					c0.4,0.9,0.9,1.9,1.5,2.8c0.1,0.3,0.4,0.4,0.6,0.4C39.5,59.7,39.6,59.7,39.8,59.6z"/>
				<path class="st2" d="M91.9,43.5c-0.4,0-0.8,0.4-0.8,0.8l0,0c0,1,0,2-0.1,2.9c0,0.4,0.3,0.8,0.6,0.9c0,0,0,0,0.1,0
					c0.4,0,0.8-0.3,0.8-0.6c0.1-1,0.1-2,0.1-3.2l0,0C92.6,43.8,92.4,43.5,91.9,43.5z"/>
				<path class="st2" d="M91.5,49.6c-0.4-0.1-0.9,0.1-0.9,0.6c-0.3,1-0.5,1.9-0.8,2.8c-0.1,0.4,0.1,0.9,0.5,1c0.1,0,0.1,0,0.3,0
					c0.4,0,0.6-0.3,0.8-0.5c0.4-1,0.6-2,0.9-3.1C92.1,50.1,91.9,49.7,91.5,49.6z"/>
				<path class="st2" d="M37.4,53.2c-0.3-0.9-0.6-1.9-0.8-2.8c-0.1-0.4-0.5-0.6-0.9-0.6c-0.4,0.1-0.6,0.5-0.6,0.9
					c0.3,1,0.5,2,0.9,3.1c0.1,0.4,0.4,0.5,0.8,0.5c0.1,0,0.1,0,0.3,0C37.3,53.9,37.6,53.6,37.4,53.2z"/>
				<path class="st2" d="M85.5,61c-0.6,0.8-1.3,1.5-1.9,2.3c-0.3,0.3-0.3,0.8,0,1.2c0.1,0.1,0.4,0.3,0.5,0.3c0.3,0,0.4-0.1,0.5-0.3
					c0.8-0.8,1.4-1.5,2-2.4c0.3-0.4,0.3-0.8-0.1-1C86.2,60.6,85.7,60.6,85.5,61z"/>
				<path class="st2" d="M36.4,36c0.1,0,0.1,0,0.3,0c0.4,0,0.6-0.3,0.8-0.5c0.3-0.9,0.6-1.9,1.2-2.8c0.1-0.4,0-0.9-0.4-1
					s-0.9,0-1,0.4C36.9,33,36.5,34,36.1,35C35.8,35.4,36,35.9,36.4,36z"/>
				<path class="st2" d="M38.9,30.4c0.1,0.1,0.3,0.1,0.4,0.1c0.3,0,0.5-0.1,0.6-0.4c0.5-0.9,1-1.7,1.7-2.4c0.3-0.4,0.3-0.8-0.1-1
					c-0.4-0.3-0.8-0.3-1,0.1c-0.6,0.9-1.3,1.7-1.8,2.6C38.3,29.6,38.5,30.1,38.9,30.4z"/>
				<path class="st2" d="M35.5,48.2c0.4,0,0.8-0.4,0.6-0.9c-0.1-1-0.1-2-0.1-2.9c0-0.4-0.4-0.8-0.8-0.8l0,0c-0.4,0-0.8,0.4-0.8,0.8
					c0,1,0,2,0.1,3.2C34.6,47.9,35,48.2,35.5,48.2C35.4,48.2,35.4,48.2,35.5,48.2z"/>
				<path class="st2" d="M40.5,60.9c-0.4,0.3-0.4,0.8-0.1,1c0.6,0.9,1.3,1.7,2,2.4c0.1,0.1,0.4,0.3,0.5,0.3c0.3,0,0.4-0.1,0.5-0.3
					c0.3-0.3,0.4-0.8,0-1.2c-0.6-0.8-1.3-1.5-1.9-2.3C41.4,60.6,40.9,60.6,40.5,60.9z"/>
				<path class="st2" d="M35.3,42C35.4,42,35.4,42,35.3,42c0.5,0,0.8-0.3,0.9-0.6c0.1-1,0.3-1.9,0.5-2.9c0.1-0.4-0.1-0.9-0.6-0.9
					c-0.4-0.1-0.9,0.1-0.9,0.6c-0.3,1-0.4,2-0.5,3.1C34.6,41.7,34.9,42,35.3,42z"/>
				<path class="st2" d="M82.3,81.2c-1.8,1-4,1.5-6,1.8c-2.7,0.4-5.2-0.3-7.9,0c-0.6,0.1-1.3,0.1-1.9,0.4c1-2.9,2.3-6.3,2.2-9.3
					c0-0.1,0-0.3,0-0.4h4.1c1.2,0,2.2-1,2.2-2.2v-0.3c0.9-0.4,1.7-0.8,2.6-1.2c0.4-0.3,0.5-0.6,0.4-1c-0.3-0.4-0.6-0.5-1-0.4
					c-0.6,0.3-1.2,0.6-1.8,0.9v-5.8c0-1-0.8-1.9-1.8-2.2c-0.3-3.2,2-6.3,3.6-8.8c2-3.3,3.5-6.8,4-10.6c0.9-6.9-1.9-14.1-7.7-18.2
					c-2.4-1.8-5.9-2.6-8.8-2.6c-3.1,0-5.9,0.4-8.7,1.5c-6,2.7-9.5,10.2-9.5,16.5c0,4.2,1.3,8.4,3.3,12c1.7,2.9,4.6,6.4,4.4,10
					c-1.2,0-2,1-2,2.2v5.2c-0.3-0.1-0.4-0.3-0.6-0.4c-0.4-0.3-0.9,0-1,0.4c-0.3,0.4,0,0.9,0.4,1c0.5,0.3,0.9,0.5,1.4,0.6v0.8
					c0,1.2,1,2.2,2.2,2.2h8.4c0,0.1,0,0.3,0,0.4c0.1,1.5-0.4,2.8-0.8,4.2c-0.1,0.6-0.4,1.3-0.6,1.8c0-0.1-0.1-0.1-0.1-0.3
					c-1.4-1.7-3.6-2.3-5.8-2.6c-2.6-0.3-5.1,0.3-7.8,0c-2.2-0.3-4.4-0.8-6.3-1.9c-1.3-0.6-2.7,1-1.5,2c2.2,1.9,3.6,4.2,4.7,6.8
					c1,2.4,2.2,4.9,4.2,6.7c2.7,2.3,6,2.2,8.8,0.6c0,0.3-0.1,0.4-0.1,0.6c-1.4,6.1-1.5,12.8,1.4,18.4c0.8,1.5,2.9,2,4.5,1.2
					c1.5-0.9,1.9-2.8,1.2-4.5c-1.9-3.8-1.8-8.4-0.9-12.7c3.1,3.5,8.2,5,12,1.8c2-1.7,3.1-4.1,4.1-6.5c1.2-2.7,2.7-5,4.9-7
					C84.9,82.2,83.5,80.6,82.3,81.2z M58.1,87.7c-1.3,1.4-3.1,2.6-5,2.7c-2.2,0.1-4-1.5-5-3.2c-1.2-1.9-1.9-4.1-2.9-6
					c-0.3-0.5-0.6-1-0.9-1.5c2,0.4,4.1,0.6,6.1,0.5s4.4-0.4,6.3,0.5c1.5,0.6,2.6,1.9,2.6,3.5C59,85.2,58.4,86.5,58.1,87.7z
					 M51.7,44.6c-1.7-5.6-0.4-12,4.2-16c1.8-1.4,4.4-2.2,6.7-2s4.6,0.1,6.7,1.2c5,2.6,7,9.5,6.1,14.6c-1.2,6.9-7.6,12-7.4,19.2h-4.1
					V48.2c0-0.4-0.4-0.8-0.8-0.8s-0.8,0.4-0.8,0.8v13.3h-3.7c0-2.9-0.9-5.6-2.3-8.2C54.6,50.5,52.6,47.8,51.7,44.6z M55.8,69.3V66
					h14.5v3.3H55.8z M77.8,86.8c-1,1.9-1.8,4.1-2.9,6c-1,1.8-2.8,3.3-5,3.2c-2.3-0.1-4.5-1.7-5.8-3.6c-0.1-0.3-0.4-0.4-0.6-0.5l0,0
					c0.1-0.3,0.3-0.5,0.3-0.9c0.4-1.4,0.9-2.9,1.4-4.4c0.3-0.3,0.6-0.4,1-0.5c2-0.8,4.2-0.5,6.3-0.5c2,0.1,4.2,0,6.1-0.5
					C78.4,85.8,78,86.3,77.8,86.8z"/>
			</g>
		</g>
	</g>
</g>
</svg>
