<?xml version="1.0" encoding="utf-8"?>
<!-- Generator: Adobe Illustrator 22.0.1, SVG Export Plug-In . SVG Version: 6.00 Build 0)  -->
<svg version="1.1" id="Layer_1" xmlns="http://www.w3.org/2000/svg" xmlns:xlink="http://www.w3.org/1999/xlink" x="0px" y="0px"
	 viewBox="0 0 124.3 124.5" style="enable-background:new 0 0 124.3 124.5;" xml:space="preserve">
<style type="text/css">
	.st0{fill:#02A79D;}
	.st1{fill:#1F867C;}
	.st2{fill:#FFFFFF;}
</style>
<g>
	<path class="st0" d="M124.3,62.2c0,27.1-17.3,50.1-41.5,58.7l9-33.6l-6.5,3l-9.9-21.5L71.7,64l-0.9,28.6l-4.5-1.2V67.9l-2.8-18.7
		l-1.4-1.5l-6.8,9.9L54,72.2l-1.7,11.6l-1.5-14.7l-2-0.3l-3.7-21L32.8,34l-1.7-2l-30,41.8C0.4,70,0,66.1,0,62.2
		C0,27.8,27.9,0,62.2,0C96.5,0,124.3,27.8,124.3,62.2z"/>
	<path class="st1" d="M91.9,87.3l-9,33.6c-6.5,2.3-13.5,3.6-20.7,3.6c-30.4,0-55.7-21.8-61.1-50.6l30-41.8l1.7,2l12.3,13.8l3.7,21
		l2,0.3l1.5,14.7L54,72.3l1.3-14.6l6.8-9.9l1.4,1.5L66.3,68v23.5l4.5,1.2l0.9-28.6l3.7,4.8l9.9,21.5L91.9,87.3z"/>
	<g>
		<g>
			<g>
				<path class="st2" d="M34.6,40.7c2.5,3.4,5.7,5.3,8.3,6.3c0.8,0.3,1.5,0.6,2.2,0.8l-2.6,17.5l-10.2,22c-0.8,1.8,0,3.9,1.8,4.8
					c1.8,0.8,3.9,0,4.8-1.8l9.9-21.5l2,0.3v22.3c0,2,1.6,3.6,3.6,3.6s3.6-1.6,3.6-3.6V68.1c0-0.1,0-0.1,0-0.2l2.8-18.7
					c0.1-0.1,0.2-0.2,0.3-0.4c0.2-0.2,0.4-0.5,0.7-0.8c-0.3-0.2-0.6-0.5-1-0.8c-0.1-0.1-0.2-0.2-0.4-0.3c-0.2-0.2-0.4-0.3-0.7-0.5
					s-0.6-0.4-1-0.6c-0.5,0.4-1.2,0.7-1.8,0.9c-0.2,0.1-0.4,0.1-0.7,0.2c-0.5,0.1-1.1,0.2-1.6,0.2c-1.9,0-3.7-0.8-5-2.1l0,0
					c-0.8,0.2-1.5,0.6-2.3,1c-0.4,0.2-0.8,0.3-1.2,0.3c-0.3,0-0.6-0.1-0.9-0.1c-0.7-0.2-1.3-0.7-1.6-1.4s-0.4-1.4-0.2-2.1
					c0-0.1,0.1-0.2,0.1-0.2c-0.5-0.2-1-0.5-1.4-0.8c-1.4-0.9-2.9-2.1-4.1-3.8c-1.2-1.7-2.2-3.8-2.7-6.6c-0.2-1.2-1.4-2-2.6-1.8
					c-1.2,0.2-2,1.4-1.8,2.6C31.6,35.6,33,38.4,34.6,40.7z"/>
				<path class="st2" d="M80.5,44.8c-0.3,0.7-0.9,1.2-1.6,1.4c-0.3,0.1-0.6,0.1-0.8,0.1c-0.4,0-0.9-0.1-1.2-0.3
					c-0.8-0.4-1.6-0.7-2.3-1l0,0c-1.3,1.3-3.1,2.1-5,2.1c-0.5,0-1.1-0.1-1.6-0.2c-0.2-0.1-0.5-0.1-0.7-0.2c-0.6-0.2-1.2-0.5-1.8-0.9
					c-0.1,0-0.1-0.1-0.2-0.2c-0.1-0.1-0.2-0.1-0.3-0.2c-0.1-0.1-0.1-0.1-0.2-0.2c-0.5-0.4-0.9-0.9-1.3-1.5c-0.3-0.4-0.5-0.9-0.6-1.3
					c-0.2-0.2-0.5-0.3-0.7-0.5c-0.2-0.1-0.3-0.2-0.5-0.3c-0.1,0.3-0.1,0.5-0.2,0.8c-0.2,0.5-0.4,0.9-0.6,1.3
					c-0.4,0.6-0.8,1.1-1.3,1.5c-0.1,0.1-0.1,0.1-0.2,0.2c0.1,0.1,0.2,0.1,0.3,0.2c0.4,0.3,0.8,0.5,1.2,0.8c0.5,0.4,1,0.8,1.3,1.2
					c0.1,0.1,0.3,0.3,0.4,0.4c0.3,0.3,0.5,0.6,0.7,0.8c0.1,0.2,0.2,0.3,0.3,0.4l2.8,18.7c0,0.1,0,0.1,0,0.2v23.3
					c0,2,1.6,3.6,3.6,3.6s3.6-1.6,3.6-3.6V69.1l2-0.3l9.9,21.5c0.8,1.8,3,2.6,4.8,1.8c1.8-0.8,2.6-3,1.8-4.8l-10.2-22l-2.6-17.5
					c1.3-0.4,3.1-1.1,4.9-2.1c1.9-1.1,3.9-2.7,5.6-5c1.7-2.2,3-5.1,3.6-8.7c0.2-1.2-0.6-2.4-1.8-2.6c-1.2-0.2-2.4,0.6-2.6,1.8
					c-0.5,2.9-1.5,5.1-2.8,6.8c-1.6,2.1-3.6,3.5-5.4,4.4c0,0.1,0.1,0.2,0.1,0.2C80.9,43.4,80.9,44.1,80.5,44.8z"/>
				<path class="st2" d="M75.2,44.2L75.2,44.2c-0.2,0.2-0.3,0.3-0.3,0.4c0.7,0.2,1.4,0.5,2.2,0.9c0.6,0.3,1.2,0.3,1.7,0.1
					s1-0.6,1.2-1.1c0.3-0.6,0.3-1.3,0.1-1.9c-0.2-0.5-0.6-0.9-1-1.1c-0.8-0.4-1.7-0.8-2.5-1.1c0,0.4-0.1,0.8-0.2,1.1
					C76.2,42.6,75.8,43.5,75.2,44.2z"/>
				<path class="st2" d="M44.2,44.6c0.3,0.5,0.7,0.9,1.2,1.1c0.6,0.2,1.2,0.2,1.7-0.1c0.8-0.4,1.5-0.7,2.2-0.9
					c-0.1-0.1-0.2-0.2-0.2-0.3L49,44.3c-0.5-0.7-0.9-1.6-1.2-2.6c-0.1-0.4-0.1-0.8-0.2-1.1c-0.8,0.3-1.7,0.6-2.5,1.1
					c-0.5,0.2-0.8,0.6-1,1.1C43.9,43.3,43.9,44,44.2,44.6z"/>
				<path class="st2" d="M63.3,42.1c0.1,0.4,0.3,0.7,0.5,1c0.3,0.5,0.6,1,1,1.4c0.2,0.2,0.4,0.4,0.7,0.6c0.2,0.1,0.3,0.3,0.5,0.4
					l0,0c0.2,0.1,0.3,0.2,0.5,0.3c0.5,0.2,1,0.4,1.5,0.5c2.2,0.5,4.3-0.1,5.8-1.5c0.2-0.1,0.3-0.3,0.5-0.4l0.1-0.1
					c0.7-0.8,1.2-1.7,1.4-2.8c0.1-0.4,0.1-0.8,0.2-1.2c0-0.2,0-0.4,0-0.6c-0.1-2.8-2.1-5.4-5-6c-3.5-0.8-7,1.4-7.8,4.9
					c-0.2,0.8-0.2,1.5-0.1,2.3c0,0.2,0.1,0.4,0.1,0.6C63.2,41.6,63.2,41.9,63.3,42.1z"/>
				<path class="st2" d="M48.4,41.5c0.3,1.1,0.8,2,1.4,2.8l0.1,0.1c0.1,0.2,0.3,0.3,0.5,0.4c1.5,1.4,3.7,2,5.8,1.5
					c0.5-0.1,1-0.3,1.5-0.5c0.2-0.1,0.3-0.2,0.5-0.3l0,0c0.2-0.1,0.3-0.2,0.5-0.4s0.5-0.4,0.7-0.6c0.4-0.4,0.8-0.9,1-1.4
					c0.2-0.3,0.3-0.7,0.5-1c0.1-0.2,0.1-0.5,0.2-0.7c0-0.2,0.1-0.4,0.1-0.6c0.1-0.7,0.1-1.5-0.1-2.3c-0.8-3.5-4.3-5.7-7.8-4.9
					c-2.9,0.7-4.9,3.2-5,6c0,0.2,0,0.4,0,0.6C48.2,40.7,48.3,41.1,48.4,41.5z"/>
			</g>
		</g>
	</g>
</g>
</svg>
