<?xml version="1.0" encoding="utf-8"?>
<!-- Generator: Adobe Illustrator 22.0.1, SVG Export Plug-In . SVG Version: 6.00 Build 0)  -->
<svg version="1.1" id="Layer_1" xmlns="http://www.w3.org/2000/svg" xmlns:xlink="http://www.w3.org/1999/xlink" x="0px" y="0px"
	 viewBox="0 0 685 90" style="enable-background:new 0 0 685 90;" xml:space="preserve">
<style type="text/css">
	.st0{fill:#9E1F63;}
	.st1{fill:#00A79D;}
</style>
<g>
	<g>
		<polygon class="st0" points="149.4,26 167.6,76 188.6,26 		"/>
		<polygon class="st1" points="170.5,26 188.8,76 209.7,26 		"/>
		<path d="M200.6,75.5l18.3-49h10.9l18.2,49h-14.2l-3-9.6h-13l-2.9,9.6H200.6z M224.3,40.5l-4.6,16.4h8.9L224.3,40.5z"/>
		<path d="M251.6,75.5v-49h13.4v37.2h22.2v11.7H251.6z"/>
		<path d="M292.2,75.5v-49h13.4v37.2h22.2v11.7H292.2z"/>
		<path d="M362.4,42.4c0,0-7.1-4.5-13-4.5c-2.3,0-3.9,0.7-3.9,2.4c0,2.6,3.4,3.1,9.1,4.9c9,2.8,14.8,6,14.8,15.2
			c0,11.8-9.5,15.6-18.6,15.6c-7.1,0-15.4-2.3-21.3-5.7l5.8-11.8c0,0,8.2,5.4,15.7,5.4c2.9,0,3.9-0.8,3.9-2.1c0-2.8-5-3.4-10.9-5.4
			c-8.6-2.9-12.4-6.6-12.4-13.7c0-10.8,8.6-16.6,18.3-16.6c7.1,0,13.9,3.1,18.3,5.3L362.4,42.4z"/>
	</g>
	<g>
		<path d="M45.3,27.9H26.6v47.5h-1.4V27.9H6.5v-1.4h38.8V27.9z"/>
		<path d="M90.5,26.6v48.9h-1.4V51.2h-34v24.3h-1.4V26.6h1.4v23.2h34V26.6H90.5z"/>
		<path d="M136.5,74.1v1.4h-32.1V26.6h31.5v1.4h-30.1v21.8h26.4v1.4h-26.4v22.9H136.5z"/>
	</g>
	<g>
		<path d="M383.2,75.3V26.4h19.9c8,0,13.8,7.5,13.8,14.8c0,7.6-5.4,14.9-13.3,14.9h-19v19.2H383.2z M384.6,54.7h19
			c7.4,0,11.9-6.9,11.9-13.5c0-7-5.5-13.4-12.4-13.4h-18.5V54.7z"/>
		<path d="M426,75.3V26.4h19.9c8,0,13.8,7.5,13.8,14.8c0,7.6-5.1,14.3-12.5,14.9l12.4,19.2H458L445.6,56h-18.2v19.2H426z
			 M427.4,54.7h19c7.4,0,11.9-6.7,11.9-13.5c0-7-5.5-13.4-12.4-13.4h-18.5V54.7z"/>
		<path d="M467.4,50.8c0-13,9.9-24.8,22.8-24.8c13.5,0,22.7,12.6,22.7,24.8c0,13.2-9.9,24.8-22.7,24.8
			C476.7,75.5,467.4,63.3,467.4,50.8z M490.2,74.2c12.7,0,21.3-11.9,21.3-23.4c0-12.2-9.2-23.4-21.3-23.4
			c-12.7,0-21.4,11.8-21.4,23.4C468.8,63,477.8,74.2,490.2,74.2z"/>
		<path d="M516.1,71.9c2.6,1.8,5.9,2.8,9.8,2.8c11.7,0,13.1-8.8,13.1-23.4V26.4h1.4v24.8c0,14.9-1.6,24.8-14.5,24.8
			c-4.2,0-7.7-1-10.6-3L516.1,71.9z"/>
		<path d="M585.9,73.9v1.4h-32.1V26.4h31.5v1.4h-30.1v21.8h26.4v1.4h-26.4v22.9H585.9z"/>
		<path d="M615.2,26.1c8.7,0,14.9,4.5,17.8,10.7l-1.3,0.4c-3.8-7.2-10.5-9.7-16.8-9.7c-13.6,0-21.4,11.9-21.4,23.2
			c0,12.5,9.6,23.6,21.6,23.6c6.5,0,14-3.2,17.8-10.3l1.3,0.3c-3.4,7.4-11.9,11.4-19.4,11.4c-13.3,0-22.7-12.8-22.7-25.2
			C592.1,38.8,600.5,26.1,615.2,26.1z"/>
		<path d="M676.5,27.7h-18.7v47.5h-1.4V27.7h-18.7v-1.4h38.8V27.7z"/>
	</g>
</g>
</svg>
