<?xml version="1.0" standalone="no"?><!-- Generator: Gravit.io --><svg xmlns="http://www.w3.org/2000/svg" xmlns:xlink="http://www.w3.org/1999/xlink" style="isolation:isolate" viewBox="0 0 670 50" width="670" height="50"><defs><clipPath id="_clipPath_JbXAbXTPHFVuL9zOUakT8G7UpgtcBs4b"><rect width="670" height="50"/></clipPath></defs><g clip-path="url(#_clipPath_JbXAbXTPHFVuL9zOUakT8G7UpgtcBs4b)"><g id="Group"><path d=" M 142.9 0 L 161.1 50 L 182.1 0 L 142.9 0 Z " fill="rgb(158,31,99)"/><path d=" M 164 0 L 182.3 50 L 203.2 0 L 164 0 Z " fill="rgb(0,167,157)"/><path d=" M 194.1 49.5 L 212.4 0.5 L 223.3 0.5 L 241.5 49.5 L 227.3 49.5 L 224.3 39.9 L 211.3 39.9 L 208.4 49.5 L 194.1 49.5 Z  M 217.8 14.5 L 213.2 30.9 L 222.1 30.9 L 217.8 14.5 Z " fill="rgb(0,0,0)"/><path d=" M 245.1 49.5 L 245.1 0.5 L 258.5 0.5 L 258.5 37.7 L 280.7 37.7 L 280.7 49.4 L 245.1 49.4 L 245.1 49.5 Z " fill="rgb(0,0,0)"/><path d=" M 285.7 49.5 L 285.7 0.5 L 299.1 0.5 L 299.1 37.7 L 321.3 37.7 L 321.3 49.4 L 285.7 49.4 L 285.7 49.5 Z " fill="rgb(0,0,0)"/><path d=" M 355.9 16.4 C 355.9 16.4 348.8 11.9 342.9 11.9 C 340.6 11.9 339 12.6 339 14.3 C 339 16.9 342.4 17.4 348.1 19.2 C 357.1 22 362.9 25.2 362.9 34.4 C 362.9 46.2 353.4 50 344.3 50 C 337.2 50 328.9 47.7 323 44.3 L 328.8 32.5 C 328.8 32.5 337 37.9 344.5 37.9 C 347.4 37.9 348.4 37.1 348.4 35.8 C 348.4 33 343.4 32.4 337.5 30.4 C 328.9 27.5 325.1 23.8 325.1 16.7 C 325.1 5.9 333.7 0.1 343.4 0.1 C 350.5 0.1 357.3 3.2 361.7 5.4 L 355.9 16.4 Z " fill="rgb(0,0,0)"/></g><g id="Group"><path d=" M 38.8 1.9 L 20.1 1.9 L 20.1 49.4 L 18.7 49.4 L 18.7 1.9 L 0 1.9 L 0 0.5 L 38.8 0.5 L 38.8 1.9 Z " fill="rgb(0,0,0)"/><path d=" M 84 0.6 L 84 49.5 L 82.6 49.5 L 82.6 25.2 L 48.6 25.2 L 48.6 49.5 L 47.2 49.5 L 47.2 0.6 L 48.6 0.6 L 48.6 23.8 L 82.6 23.8 L 82.6 0.6 L 84 0.6 Z " fill="rgb(0,0,0)"/><path d=" M 130 48.1 L 130 49.5 L 97.9 49.5 L 97.9 0.6 L 129.4 0.6 L 129.4 2 L 99.3 2 L 99.3 23.8 L 125.7 23.8 L 125.7 25.2 L 99.3 25.2 L 99.3 48.1 L 130 48.1 Z " fill="rgb(0,0,0)"/></g><g id="Group"><path d=" M 376.7 49.3 L 376.7 0.4 L 396.6 0.4 C 404.6 0.4 410.4 7.9 410.4 15.2 C 410.4 22.8 405 30.1 397.1 30.1 L 378.1 30.1 L 378.1 49.3 L 376.7 49.3 Z  M 378.1 28.7 L 397.1 28.7 C 404.5 28.7 409 21.8 409 15.2 C 409 8.2 403.5 1.8 396.6 1.8 L 378.1 1.8 L 378.1 28.7 Z " fill="rgb(0,0,0)"/><path d=" M 419.5 49.3 L 419.5 0.4 L 439.4 0.4 C 447.4 0.4 453.2 7.9 453.2 15.2 C 453.2 22.8 448.1 29.5 440.7 30.1 L 453.1 49.3 L 451.5 49.3 L 439.1 30 L 420.9 30 L 420.9 49.2 L 419.5 49.2 L 419.5 49.3 Z  M 420.9 28.7 L 439.9 28.7 C 447.3 28.7 451.8 22 451.8 15.2 C 451.8 8.2 446.3 1.8 439.4 1.8 L 420.9 1.8 L 420.9 28.7 Z " fill="rgb(0,0,0)"/><path d=" M 460.9 24.8 C 460.9 11.8 470.8 0 483.7 0 C 497.2 0 506.4 12.6 506.4 24.8 C 506.4 38 496.5 49.6 483.7 49.6 C 470.2 49.5 460.9 37.3 460.9 24.8 Z  M 483.7 48.2 C 496.4 48.2 505 36.3 505 24.8 C 505 12.6 495.8 1.4 483.7 1.4 C 471 1.4 462.3 13.2 462.3 24.8 C 462.3 37 471.3 48.2 483.7 48.2 Z " fill="rgb(0,0,0)"/><path d=" M 509.6 45.9 C 512.2 47.7 515.5 48.7 519.4 48.7 C 531.1 48.7 532.5 39.9 532.5 25.3 L 532.5 0.4 L 533.9 0.4 L 533.9 25.2 C 533.9 40.1 532.3 50 519.4 50 C 515.2 50 511.7 49 508.8 47 L 509.6 45.9 Z " fill="rgb(0,0,0)"/><path d=" M 579.4 47.9 L 579.4 49.3 L 547.3 49.3 L 547.3 0.4 L 578.8 0.4 L 578.8 1.8 L 548.7 1.8 L 548.7 23.6 L 575.1 23.6 L 575.1 25 L 548.7 25 L 548.7 47.9 L 579.4 47.9 L 579.4 47.9 Z " fill="rgb(0,0,0)"/><path d=" M 608.7 0.1 C 617.4 0.1 623.6 4.6 626.5 10.8 L 625.2 11.2 C 621.4 4 614.7 1.5 608.4 1.5 C 594.8 1.5 587 13.4 587 24.7 C 587 37.2 596.6 48.3 608.6 48.3 C 615.1 48.3 622.6 45.1 626.4 38 L 627.7 38.3 C 624.3 45.7 615.8 49.7 608.3 49.7 C 595 49.7 585.6 36.9 585.6 24.5 C 585.6 12.8 594 0.1 608.7 0.1 Z " fill="rgb(0,0,0)"/><path d=" M 670 1.7 L 651.3 1.7 L 651.3 49.2 L 649.9 49.2 L 649.9 1.7 L 631.2 1.7 L 631.2 0.3 L 670 0.3 L 670 1.7 L 670 1.7 Z " fill="rgb(0,0,0)"/></g></g></svg>